<?xml version="1.0" encoding="UTF-8"?>
<svg version="1.1" xmlns="http://www.w3.org/2000/svg" width="500" height="78">
<path d="M0 0 C0.66386719 0.1546875 1.32773437 0.309375 2.01171875 0.46875 C9.28389171 2.64040087 14.92474345 7.94815213 19.125 14.125 C20.42436847 18.39435355 19.73232351 21.36304157 17.9375 25.375 C17.628125 25.91125 17.31875 26.4475 17 27 C16.01 26.67 15.02 26.34 14 26 C14 26.99 14 27.98 14 29 C15.32 28.67 16.64 28.34 18 28 C17.505 29.485 17.505 29.485 17 31 C16.01 30.67 15.02 30.34 14 30 C14.495 30.99 14.495 30.99 15 32 C16.32 32 17.64 32 19 32 C19 32.66 19 33.32 19 34 C18.01 34.495 18.01 34.495 17 35 C17.66 35.66 18.32 36.32 19 37 C19.796875 38.8359375 19.796875 38.8359375 20 41 C18.890625 43.2890625 18.890625 43.2890625 17.25 45.625 C16.71890625 46.40101562 16.1878125 47.17703125 15.640625 47.9765625 C14 50 14 50 11 52 C11.03122943 53.96756452 11.03122943 53.96756452 12 56 C14.99615946 57.3045656 14.99615946 57.3045656 18 58 C16.75023244 61.65316671 16.32901247 62.78065836 13 65 C10.69 62.03 8.38 59.06 6 56 C4.0509375 56.495 4.0509375 56.495 2.0625 57 C-7.80867193 59.1251509 -16.4183512 58.22150117 -25.11328125 52.64453125 C-29.25754739 49.33444287 -31.80931551 45.81950589 -34 41 C-34.25 38.0625 -34.25 38.0625 -34 36 C-33.34 36 -32.68 36 -32 36 C-32 36.66 -32 37.32 -32 38 C-31.2471875 37.90203125 -30.494375 37.8040625 -29.71875 37.703125 C-27 38 -27 38 -25.15625 40.046875 C-24.6096875 40.93890625 -24.063125 41.8309375 -23.5 42.75 C-19.18357837 49.33138265 -14.74420591 53.15762843 -7 55 C-4.12482102 54.81440052 -4.12482102 54.81440052 -2 54 C-2 51.69 -2 49.38 -2 47 C-1.44570313 47.2165625 -0.89140625 47.433125 -0.3203125 47.65625 C0.40414062 47.9346875 1.12859375 48.213125 1.875 48.5 C2.59429687 48.7784375 3.31359375 49.056875 4.0546875 49.34375 C5.97367461 50.10655018 5.97367461 50.10655018 8 50 C10.17086954 47.5921919 11.7116776 44.9682948 13 42 C12.92124308 38.73461105 12.92124308 38.73461105 12.375 36.53125 C11.95449039 33.69281011 12.08780869 30.99449351 12.22485352 28.13598633 C12.59746688 20.29840962 12.59746688 20.29840962 9.375 13.3125 C7.74852668 11.53437003 7.74852668 11.53437003 6 10 C5.49726563 9.50113281 4.99453125 9.00226562 4.4765625 8.48828125 C0.58173898 4.89226694 -3.06664675 3.03834449 -8.390625 2.96875 C-15.21617969 3.37746585 -19.23673737 5.23673737 -24.125 10.125 C-26.75708678 14.1608664 -28.35284027 18.48783371 -30 23 C-31.32 23 -32.64 23 -34 23 C-34.86870297 20.57965146 -35.12075078 19.3569736 -34.28515625 16.88671875 C-29.66870891 8.58301315 -24.6640783 3.61174147 -15.5625 0.5 C-10.00413644 -0.99549505 -5.570909 -1.44864938 0 0 Z " fill="#9A999A" transform="translate(282,10)"/>
<path d="M0 0 C2.31 0 4.62 0 7 0 C9.90394529 6.26024433 12.36414083 12.58376754 14.6015625 19.109375 C14.92410004 20.03921204 15.24663757 20.96904907 15.57894897 21.92706299 C16.59798374 24.86678233 17.61174738 27.80828326 18.625 30.75 C19.64635186 33.70565738 20.66882017 36.66092291 21.69247437 39.61578369 C22.32620723 41.44609862 22.95845955 43.27692705 23.58901978 45.1083374 C24.97213503 49.11187005 26.37138047 53.0876962 28 57 C27 58 27 58 24.93359375 58.09765625 C24.10988281 58.08605469 23.28617188 58.07445312 22.4375 58.0625 C21.61121094 58.05347656 20.78492188 58.04445312 19.93359375 58.03515625 C19.29550781 58.02355469 18.65742187 58.01195312 18 58 C18 56.02 18 54.04 18 52 C17.34 52 16.68 52 16 52 C15.9071875 50.7625 15.9071875 50.7625 15.8125 49.5 C14.50339209 43.86076594 11.63995908 39.6831159 7.625 35.5625 C4.32985375 33.60110342 1.82021812 33.13891702 -2 33 C-4.15337375 33.43702301 -4.15337375 33.43702301 -6 35 C-7.11993965 37.43734235 -7.96927765 39.6464697 -8.75 42.1875 C-8.97042969 42.83525391 -9.19085938 43.48300781 -9.41796875 44.15039062 C-10.8279914 48.5337219 -11.21701105 52.35234662 -11 57 C-14.28976808 58.09658936 -15.71303767 57.79953138 -19 57 C-18.34 55.68 -17.68 54.36 -17 53 C-16.34 53 -15.68 53 -15 53 C-15 51.68 -15 50.36 -15 49 C-14.34 49 -13.68 49 -13 49 C-13.020625 48.195625 -13.04125 47.39125 -13.0625 46.5625 C-13 44 -13 44 -12 43 C-11.855625 41.948125 -11.71125 40.89625 -11.5625 39.8125 C-11.0469677 36.31833663 -10.20957019 33.30615851 -9 30 C-8.34 30 -7.68 30 -7 30 C-6.86464844 29.27039063 -6.72929688 28.54078125 -6.58984375 27.7890625 C-6.05135279 25.24282049 -5.36106785 22.84931905 -4.5625 20.375 C-2.90752519 14.98821925 -1.89799736 9.55701895 -1 4 C-0.34 4 0.32 4 1 4 C0.67 2.68 0.34 1.36 0 0 Z M1 13 C0.15838146 15.08000011 -0.67300763 17.16414146 -1.5 19.25 C-1.9640625 20.41015625 -2.428125 21.5703125 -2.90625 22.765625 C-4.21356233 26.06248366 -4.21356233 26.06248366 -4 30 C0.29 30.99 4.58 31.98 9 33 C10.12780071 27.36099645 9.06675012 25.09798363 7 20 C6.34 20 5.68 20 5 20 C4.67 18.35 4.34 16.7 4 15 C3.34 15 2.68 15 2 15 C1.67 14.34 1.34 13.68 1 13 Z M10 31 C11 33 11 33 11 33 Z " fill="#373737" transform="translate(55,10)"/>
<path d="M0 0 C15.51 0 31.02 0 47 0 C47 2.64 47 5.28 47 8 C46.42894531 7.70351563 45.85789062 7.40703125 45.26953125 7.1015625 C43.09966891 6.0483763 40.96187148 5.17486777 38.6875 4.375 C37.96949219 4.11460938 37.25148438 3.85421875 36.51171875 3.5859375 C33.30771971 2.83850382 30.28018754 2.96406718 27 3 C27.11751318 10.20837446 27.24234628 17.41659527 27.37231445 24.62475586 C27.41567602 27.07785149 27.45735019 29.53097753 27.49731445 31.98413086 C27.55498721 35.50644101 27.61869052 39.02859784 27.68359375 42.55078125 C27.70030624 43.65086014 27.71701874 44.75093903 27.73423767 45.88435364 C27.75418289 46.90518539 27.77412811 47.92601715 27.79467773 48.9777832 C27.81799416 50.32680473 27.81799416 50.32680473 27.84178162 51.70307922 C27.91487339 54.16176469 27.91487339 54.16176469 29 57 C28 58 28 58 25.93359375 58.09765625 C25.10988281 58.08605469 24.28617187 58.07445312 23.4375 58.0625 C22.61121094 58.05347656 21.78492188 58.04445312 20.93359375 58.03515625 C20.29550781 58.02355469 19.65742188 58.01195312 19 58 C18.67 57.34 18.34 56.68 18 56 C18.33 55.34 18.66 54.68 19 54 C19.11887956 52.33600717 19.17711944 50.66750725 19.20532227 48.99951172 C19.22526749 47.95858368 19.24521271 46.91765564 19.26576233 45.84518433 C19.29083107 44.1545134 19.29083107 44.1545134 19.31640625 42.4296875 C19.33718735 41.27832306 19.35796844 40.12695862 19.37937927 38.94070435 C19.44491665 35.2521986 19.50377928 31.56361997 19.5625 27.875 C19.60568123 25.37889862 19.64929538 22.8828047 19.69335938 20.38671875 C19.80060231 14.25789019 19.90236089 8.12898867 20 2 C18.07414478 2.27974788 16.14996368 2.57103704 14.2265625 2.8671875 C13.15486816 3.02815918 12.08317383 3.18913086 10.97900391 3.35498047 C7.13379831 4.18755162 5.05135386 5.59103643 2 8 C1.34 8 0.68 8 0 8 C0 5.36 0 2.72 0 0 Z " fill="#0D0D0C" transform="translate(419,10)"/>
<path d="M0 0 C3.78689135 3.88654639 3.71346107 6.62848007 3.66015625 11.8828125 C3.22192479 15.80888614 2.08383727 17.57817177 -0.625 20.4375 C-1.945 20.4375 -3.265 20.4375 -4.625 20.4375 C-6.23263303 16.41841743 -4.78985435 13.44168684 -3.625 9.4375 C-5.22957138 4.55265615 -5.22957138 4.55265615 -8.5625 0.75 C-13.94570812 -1.55708919 -19.81969166 -1.5625 -25.625 -1.5625 C-25.625 4.7075 -25.625 10.9775 -25.625 17.4375 C-29.585 17.9325 -29.585 17.9325 -33.625 18.4375 C-33.61339844 17.31730469 -33.60179688 16.19710938 -33.58984375 15.04296875 C-33.58046378 13.57031417 -33.5713638 12.09765778 -33.5625 10.625 C-33.55412109 9.88701172 -33.54574219 9.14902344 -33.53710938 8.38867188 C-33.52240172 5.13827932 -33.58968298 2.54345105 -34.625 -0.5625 C-34.625 -1.5525 -34.625 -2.5425 -34.625 -3.5625 C-9.0682913 -7.11903242 -9.0682913 -7.11903242 0 0 Z " fill="#414142" transform="translate(121.625,13.5625)"/>
<path d="M0 0 C2.20982903 2.0759 3.00104821 2.98499725 3.1953125 5.99609375 C3.19273437 6.78113281 3.19015625 7.56617188 3.1875 8.375 C3.19136719 9.54869141 3.19136719 9.54869141 3.1953125 10.74609375 C3.0625 12.9375 3.0625 12.9375 2.0625 15.9375 C0.4125 16.2675 -1.2375 16.5975 -2.9375 16.9375 C-2.9375 17.5975 -2.9375 18.2575 -2.9375 18.9375 C-3.9275 18.6075 -4.9175 18.2775 -5.9375 17.9375 C-5.77894531 17.36902344 -5.62039063 16.80054687 -5.45703125 16.21484375 C-4.31669223 11.21621482 -4.07956122 6.61763011 -6.4375 2 C-10.43365382 -1.2968269 -14.40057017 -2.17263029 -19.45703125 -1.953125 C-21.63331342 -1.72007431 -23.78057128 -1.4319739 -25.9375 -1.0625 C-25.91429687 -0.26585937 -25.89109375 0.53078125 -25.8671875 1.3515625 C-25.68793937 11.87598858 -25.68793937 11.87598858 -27.9375 16.9375 C-29.2575 16.9375 -30.5775 16.9375 -31.9375 16.9375 C-32.2675 17.5975 -32.5975 18.2575 -32.9375 18.9375 C-34.04618109 15.61145672 -34.00254234 13.18352586 -33.9375 9.6875 C-33.89527836 4.96395375 -34.07456484 0.57577651 -34.9375 -4.0625 C-23.04369062 -6.00051887 -10.25047138 -7.19713948 0 0 Z " fill="#494949" transform="translate(407.9375,14.0625)"/>
<path d="M0 0 C15.51 0 31.02 0 47 0 C47 2.64 47 5.28 47 8 C43 6 43 6 41.25 4.96875 C38.38469444 3.73507677 35.85628129 3.57758356 32.75 3.375 C31.67234375 3.30023438 30.5946875 3.22546875 29.484375 3.1484375 C28.66453125 3.09945313 27.8446875 3.05046875 27 3 C27.02320313 4.19238281 27.04640625 5.38476562 27.0703125 6.61328125 C27.08907178 8.17968124 27.10727181 9.746088 27.125 11.3125 C27.14175781 12.09818359 27.15851563 12.88386719 27.17578125 13.69335938 C27.18222656 14.45068359 27.18867188 15.20800781 27.1953125 15.98828125 C27.20578613 16.68477783 27.21625977 17.38127441 27.22705078 18.09887695 C27 20 27 20 25 23 C22.375 23.6875 22.375 23.6875 20 24 C19.8035969 20.70880065 19.61939255 17.41703066 19.4375 14.125 C19.38142578 13.18785156 19.32535156 12.25070313 19.26757812 11.28515625 C19.21923828 10.38925781 19.17089844 9.49335938 19.12109375 8.5703125 C19.0739624 7.74289551 19.02683105 6.91547852 18.97827148 6.06298828 C19 4 19 4 20 2 C10.70905215 3.04754085 10.70905215 3.04754085 3 8 C0.6875 7.75 0.6875 7.75 -1 7 C-0.67 4.69 -0.34 2.38 0 0 Z " fill="#AAA9A8" transform="translate(133,10)"/>
<path d="M0 0 C0.66386719 0.1546875 1.32773437 0.309375 2.01171875 0.46875 C9.29446137 2.64355723 15.09984703 7.94823918 19.0625 14.3125 C20 17 20 17 20 20 C17.25 20.3125 17.25 20.3125 14 20 C12.0625 18 12.0625 18 10 15 C5.02809959 8.85683459 1.29398773 4.32367273 -6.8125 3.125 C-12.64383822 2.72642413 -17.14060968 3.61055578 -21.6875 7.41015625 C-25.95408941 11.92207455 -28.01279826 17.19035726 -30 23 C-31.32 23 -32.64 23 -34 23 C-34.86870297 20.57965146 -35.12075078 19.3569736 -34.28515625 16.88671875 C-29.66870891 8.58301315 -24.6640783 3.61174147 -15.5625 0.5 C-10.00413644 -0.99549505 -5.570909 -1.44864938 0 0 Z " fill="#B0AFAE" transform="translate(282,10)"/>
<path d="M0 0 C15.51 0 31.02 0 47 0 C47 2.64 47 5.28 47 8 C46.42894531 7.70351563 45.85789062 7.40703125 45.26953125 7.1015625 C43.09966891 6.0483763 40.96187148 5.17486777 38.6875 4.375 C37.96949219 4.11460938 37.25148438 3.85421875 36.51171875 3.5859375 C33.29369849 2.73495464 33.29369849 2.73495464 27 3 C27 19.83 27 36.66 27 54 C26.67 54 26.34 54 26 54 C26 36.51 26 19.02 26 1 C24.35 1 22.7 1 21 1 C21 18.49 21 35.98 21 54 C20.67 54 20.34 54 20 54 C20 36.84 20 19.68 20 2 C9.50368416 3.29237555 9.50368416 3.29237555 2 8 C1.34 8 0.68 8 0 8 C0 5.36 0 2.72 0 0 Z " fill="#A3A3A3" transform="translate(419,10)"/>
<path d="M0 0 C0.66666667 1.33333333 1.33333333 2.66666667 2 4 C2.391875 4.66 2.78375 5.32 3.1875 6 C4.17413108 8.42863035 3.86626039 9.57447091 3 12 C2.01 12 1.02 12 0 12 C-1.65 16.95 -3.3 21.9 -5 27 C-3.081875 27.33 -1.16375 27.66 0.8125 28 C1.89144531 28.185625 2.97039063 28.37125 4.08203125 28.5625 C7.00270898 29.07413786 7.00270898 29.07413786 10 29 C12.84880302 33.27320453 14.28990619 35.78168857 14 41 C13.46375 40.278125 12.9275 39.55625 12.375 38.8125 C8.78295868 34.55876686 5.86325131 31.48187534 0.375 30.0625 C-3.68744014 29.9792148 -3.68744014 29.9792148 -7 32 C-8.11993965 34.43734235 -8.96927765 36.6464697 -9.75 39.1875 C-9.97042969 39.83525391 -10.19085938 40.48300781 -10.41796875 41.15039062 C-11.8279914 45.5337219 -12.21701105 49.35234662 -12 54 C-15.28976808 55.09658936 -16.71303767 54.79953138 -20 54 C-19.34 52.68 -18.68 51.36 -18 50 C-17.34 50 -16.68 50 -16 50 C-16 48.68 -16 47.36 -16 46 C-15.34 46 -14.68 46 -14 46 C-14.020625 45.195625 -14.04125 44.39125 -14.0625 43.5625 C-14 41 -14 41 -13 40 C-12.855625 38.948125 -12.71125 37.89625 -12.5625 36.8125 C-12.0469677 33.31833663 -11.20957019 30.30615851 -10 27 C-9.34 27 -8.68 27 -8 27 C-7.86464844 26.27039063 -7.72929688 25.54078125 -7.58984375 24.7890625 C-7.05135279 22.24282049 -6.36106785 19.84931905 -5.5625 17.375 C-4.1080043 12.67966194 -3.24284802 8.01095847 -2.52734375 3.15234375 C-2.26630859 2.08693359 -2.26630859 2.08693359 -2 1 C-1.34 0.67 -0.68 0.34 0 0 Z " fill="#CECECE" transform="translate(56,13)"/>
<path d="M0 0 C4.58183345 1.52727782 5.72212237 5.19604944 8.0859375 9.23828125 C10.79136766 13.14183049 13.48476804 15.49492268 18 17 C23.13185842 17.38731007 26.91159484 17.30966132 31 14 C32.30575039 9.25550325 32.41195564 4.71746419 31 0 C32.99954746 -0.04254356 35.00041636 -0.04080783 37 0 C38.55030118 1.55030118 38.24405099 3.03676001 38.3125 5.1875 C38.23778432 9.89458767 37.22997366 12.438747 34 16 C28.94081871 20.00518518 24.62296861 20.74144864 18.203125 20.515625 C11.31082404 19.40613265 4.59467751 16.09167916 -0.3125 11.0625 C-2.44119138 7.19931935 -2.15083796 5.19233827 -1 1 C-0.67 0.67 -0.34 0.34 0 0 Z " fill="#ABAAAA" transform="translate(204,48)"/>
<path d="M0 0 C3.39386774 2.10970157 4.99635857 3.74420902 7.0234375 7.2578125 C7.12275744 10.15377285 6.66583615 12.39172622 6.0234375 15.2578125 C5.0334375 15.5878125 4.0434375 15.9178125 3.0234375 16.2578125 C2.70890625 15.58234375 2.394375 14.906875 2.0703125 14.2109375 C-1.48243398 6.46282895 -1.48243398 6.46282895 -7.9765625 1.2578125 C-13.40598403 0.70313682 -17.52491068 0.77995952 -21.9765625 4.2578125 C-23.40380656 5.46555503 -23.40380656 5.46555503 -23.2265625 9.0078125 C-23.19893326 12.84827717 -22.31598254 15.13858578 -19.9765625 18.2578125 C-20.9765625 19.2578125 -20.9765625 19.2578125 -23.9140625 19.5078125 C-24.9246875 19.4253125 -25.9353125 19.3428125 -26.9765625 19.2578125 C-29.47112167 15.51597375 -29.35262772 13.69538214 -28.9765625 9.2578125 C-26.89073532 3.65901323 -23.87940875 0.87050486 -18.7265625 -1.9921875 C-12.00021347 -3.82664633 -6.22044234 -3.12113423 0 0 Z " fill="#9E9D9D" transform="translate(234.9765625,11.7421875)"/>
<path d="M0 0 C3 2 3 2 3.51171875 4.1640625 C3.59873047 5.38222656 3.59873047 5.38222656 3.6875 6.625 C3.78611328 7.85089844 3.78611328 7.85089844 3.88671875 9.1015625 C3.92410156 9.72804688 3.96148437 10.35453125 4 11 C2.68 9.68 1.36 8.36 0 7 C-0.33 8.65 -0.66 10.3 -1 12 C-0.01 12 0.98 12 2 12 C2.29132813 12.61746094 2.58265625 13.23492187 2.8828125 13.87109375 C5.51279978 19.30474671 8.37792934 24.22718982 11.9609375 29.08984375 C12.30382812 29.72019531 12.64671875 30.35054687 13 31 C12.67 31.99 12.34 32.98 12 34 C9.36 34 6.72 34 4 34 C2.48287402 31.28002265 0.98948578 28.54769686 -0.5 25.8125 C-1.14388672 24.65911133 -1.14388672 24.65911133 -1.80078125 23.48242188 C-5.63400424 16.39400159 -5.63400424 16.39400159 -5 12 C-4.34 12 -3.68 12 -3 12 C-3 8.37 -3 4.74 -3 1 C-2.01 0.67 -1.02 0.34 0 0 Z " fill="#3C3C3C" transform="translate(402,34)"/>
<path d="M0 0 C1.98 0 3.96 0 6 0 C6.25523437 0.87011719 6.25523437 0.87011719 6.515625 1.7578125 C8.05396655 6.71650921 9.63589271 10.94328239 13 15 C18.36658688 17.73357662 23.23346392 17.16854916 29 16 C34.82274313 13.08862843 37.03620453 9.68848209 39.1875 3.6875 C39.455625 2.800625 39.72375 1.91375 40 1 C40.33 1 40.66 1 41 1 C41.63976123 6.11808983 40.27857982 9.03956748 37.5 13.16796875 C34.22531654 17.16751704 30.02026923 19.66195152 24.87109375 20.23828125 C17.7374329 20.45584073 10.92247432 19.35293473 5.33203125 14.57421875 C1.39395377 10.10490501 -0.33760986 5.90817248 0 0 Z " fill="#4D4D4D" transform="translate(310,48)"/>
<path d="M0 0 C1.32 0.33 2.64 0.66 4 1 C4.08378906 1.51433594 4.16757813 2.02867188 4.25390625 2.55859375 C5.30792224 6.00759896 7.12323299 8.97021835 8.9375 12.0625 C9.29779297 12.68705078 9.65808594 13.31160156 10.02929688 13.95507812 C11.61588491 16.69289209 13.24423972 19.36635959 15 22 C11.78548731 23.60725635 8.56387464 23.05748185 5 23 C4.87625 22.360625 4.7525 21.72125 4.625 21.0625 C4.41875 20.381875 4.2125 19.70125 4 19 C3.34 18.67 2.68 18.34 2 18 C1.31653318 16.34015202 0.65411685 14.67163195 0 13 C-0.71706883 11.78444837 -1.44685015 10.57632896 -2.1875 9.375 C-2.785625 8.26125 -3.38375 7.1475 -4 6 C-3.67 5.01 -3.34 4.02 -3 3 C-2.34 3 -1.68 3 -1 3 C-0.67 2.01 -0.34 1.02 0 0 Z " fill="#3D3D3D" transform="translate(115,45)"/>
<path d="M0 0 C0.66 0 1.32 0 2 0 C2 0.66 2 1.32 2 2 C2.7528125 1.90203125 3.505625 1.8040625 4.28125 1.703125 C7 2 7 2 8.84375 4.046875 C9.3903125 4.93890625 9.936875 5.8309375 10.5 6.75 C13.9238899 12.00838188 17.20819093 15.42586264 23 18 C23 18.66 23 19.32 23 20 C23.99 20.33 24.98 20.66 26 21 C17.88970061 21.5793071 13.28812895 19.33963022 6.75 14.6875 C2.97802258 11.00124934 0.21299431 7.50268315 -0.25 2.0625 C-0.1675 1.381875 -0.085 0.70125 0 0 Z " fill="#3D3D3D" transform="translate(248,46)"/>
<path d="M0 0 C3.63 0 7.26 0 11 0 C11.33 0.99 11.66 1.98 12 3 C11.34 3 10.68 3 10 3 C9.93941406 4.21558594 9.87882812 5.43117188 9.81640625 6.68359375 C9.73201668 8.26824228 9.6473679 9.85287702 9.5625 11.4375 C9.50352539 12.64116211 9.50352539 12.64116211 9.44335938 13.86914062 C9.11328125 19.88671875 9.11328125 19.88671875 8 21 C5.5 21.125 5.5 21.125 3 21 C0.91176625 18.91176625 1.62777989 14.52134425 1.5 11.625 C1.30184009 5.72811687 1.30184009 5.72811687 0 0 Z " fill="#252525" transform="translate(358,10)"/>
<path d="M0 0 C2.4164124 0.48328248 4.65832183 1.21944061 7 2 C7.36295678 5.14488502 7.71388796 8.29099516 8.0625 11.4375 C8.16626953 12.33533203 8.27003906 13.23316406 8.37695312 14.15820312 C8.47041016 15.01220703 8.56386719 15.86621094 8.66015625 16.74609375 C8.74918213 17.53685303 8.83820801 18.3276123 8.92993164 19.14233398 C8.96461548 20.06187866 8.96461548 20.06187866 9 21 C8 22 8 22 6.15234375 22.09765625 C4.1015625 22.06510417 2.05078125 22.03255208 0 22 C-0.69878214 19.82601111 -1.10629661 18.41714718 -0.53515625 16.17578125 C0.0744753 13.69720627 0.13269283 11.48767477 0.125 8.9375 C0.12757812 8.08027344 0.13015625 7.22304688 0.1328125 6.33984375 C0.09365135 3.84435799 0.09365135 3.84435799 -1 1 C-0.67 0.67 -0.34 0.34 0 0 Z " fill="#4C4C4C" transform="translate(88,46)"/>
<path d="M0 0 C3.3 0 6.6 0 10 0 C9.85985318 3.3128323 9.71316385 6.62514408 9.5625 9.9375 C9.50352539 11.35579102 9.50352539 11.35579102 9.44335938 12.80273438 C9.40146484 13.70185547 9.35957031 14.60097656 9.31640625 15.52734375 C9.26141968 16.77632446 9.26141968 16.77632446 9.20532227 18.05053711 C9 20 9 20 8 21 C6.00041636 21.04080783 3.99954746 21.04254356 2 21 C1.90912109 19.35451172 1.90912109 19.35451172 1.81640625 17.67578125 C1.73195502 16.22134346 1.64730934 14.76691695 1.5625 13.3125 C1.52318359 12.59126953 1.48386719 11.87003906 1.44335938 11.12695312 C1.21814322 7.33292718 0.87160695 3.71348508 0 0 Z " fill="#404040" transform="translate(308,10)"/>
<path d="M0 0 C2.5 0.125 2.5 0.125 3.5 1.125 C3.73870513 3.56804386 3.92275661 5.98855433 4.0625 8.4375 C4.10568359 9.11490234 4.14886719 9.79230469 4.19335938 10.49023438 C4.39173609 13.7114943 4.5 16.89608233 4.5 20.125 C1.53 20.125 -1.44 20.125 -4.5 20.125 C-4.5 16.40679085 -4.28093893 12.71020161 -4.0625 9 C-4.02318359 8.25878906 -3.98386719 7.51757812 -3.94335938 6.75390625 C-3.55263007 0.1776315 -3.55263007 0.1776315 0 0 Z " fill="#434242" transform="translate(363.5,47.875)"/>
<path d="M0 0 C2.5 0.125 2.5 0.125 3.5 1.125 C3.73870513 3.56804386 3.92275661 5.98855433 4.0625 8.4375 C4.10568359 9.11490234 4.14886719 9.79230469 4.19335938 10.49023438 C4.39173609 13.7114943 4.5 16.89608233 4.5 20.125 C1.86 20.125 -0.78 20.125 -3.5 20.125 C-4.76830023 16.3200993 -4.40141109 12.93194772 -4.125 9 C-4.08117187 8.25878906 -4.03734375 7.51757812 -3.9921875 6.75390625 C-3.55940194 0.1779701 -3.55940194 0.1779701 0 0 Z " fill="#414141" transform="translate(156.5,47.875)"/>
<path d="M0 0 C1.65 0 3.3 0 5 0 C6.83261503 1.83261503 6.34481564 4.7781349 6.5 7.25 C6.70753083 10.52602231 6.92611361 13.64417871 7.59375 16.859375 C7.7278125 17.56578125 7.861875 18.2721875 8 19 C7.67 19.33 7.34 19.66 7 20 C4.03 20 1.06 20 -2 20 C-1.34 13.4 -0.68 6.8 0 0 Z " fill="#353534" transform="translate(375,48)"/>
<path d="M0 0 C3.17549105 -0.32540368 4.64082713 -0.23507327 7.3515625 1.5390625 C15.14880113 8.6932299 15.14880113 8.6932299 17 14 C17 14.99 17 15.98 17 17 C14.25 17.3125 14.25 17.3125 11 17 C8.9375 15 8.9375 15 7 12 C6.57589844 11.34902344 6.15179688 10.69804687 5.71484375 10.02734375 C3.62028991 6.76032829 1.69592916 3.49299171 0 0 Z " fill="#353535" transform="translate(285,13)"/>
<path d="M0 0 C3.90854281 1.3028476 4.37504511 2.87479817 6.4375 6.375 C8.82082153 10.46820058 8.82082153 10.46820058 12.22265625 13.6640625 C12.80917969 14.10492188 13.39570313 14.54578125 14 15 C14 15.99 14 16.98 14 18 C8.04414499 17.70220725 4.28773255 14.88213623 0 11 C-2 8 -2 8 -1.6875 4.375 C-1 1 -1 1 0 0 Z " fill="#494949" transform="translate(204,48)"/>
<path d="M0 0 C2.31 0 4.62 0 7 0 C7 6.27 7 12.54 7 19 C5.02 19 3.04 19 1 19 C0.67 12.73 0.34 6.46 0 0 Z " fill="#0D0D0D" transform="translate(88,11)"/>
<path d="M0 0 C1.98 0 3.96 0 6 0 C6 6.6 6 13.2 6 20 C4.68 20 3.36 20 2 20 C1.67 20.66 1.34 21.32 1 22 C0.05862745 19.17588235 -0.11725382 17.47081968 -0.09765625 14.55078125 C-0.09443359 13.70322266 -0.09121094 12.85566406 -0.08789062 11.98242188 C-0.07951172 11.10134766 -0.07113281 10.22027344 -0.0625 9.3125 C-0.05798828 8.41982422 -0.05347656 7.52714844 -0.04882812 6.60742188 C-0.03704983 4.40488013 -0.02060164 2.20247401 0 0 Z " fill="#1E1E1D" transform="translate(374,11)"/>
<path d="M0 0 C0.72058594 -0.01224609 1.44117188 -0.02449219 2.18359375 -0.03710938 C6.99474183 -0.05015951 10.93282121 0.66711022 15.5 2.1875 C14.51 2.8475 13.52 3.5075 12.5 4.1875 C12.17 4.8475 11.84 5.5075 11.5 6.1875 C10.68208984 5.84525391 10.68208984 5.84525391 9.84765625 5.49609375 C3.87841676 3.22064007 -0.21559582 3.09022308 -6.5 4.1875 C-6.48839844 4.99574219 -6.47679687 5.80398437 -6.46484375 6.63671875 C-6.45130859 8.23966797 -6.45130859 8.23966797 -6.4375 9.875 C-6.42589844 10.93074219 -6.41429687 11.98648437 -6.40234375 13.07421875 C-6.49134575 15.91160262 -6.85060162 18.4313919 -7.5 21.1875 C-7.83 21.1875 -8.16 21.1875 -8.5 21.1875 C-8.5 14.9175 -8.5 8.6475 -8.5 2.1875 C-10.48 2.1875 -12.46 2.1875 -14.5 2.1875 C-14.83 2.8475 -15.16 3.5075 -15.5 4.1875 C-15.5 3.1975 -15.5 2.2075 -15.5 1.1875 C-10.29491625 0.3314007 -5.27158038 0.00471519 0 0 Z " fill="#ACACAC" transform="translate(388.5,8.8125)"/>
<path d="M0 0 C1.65 0 3.3 0 5 0 C5 6.27 5 12.54 5 19 C3.35 19 1.7 19 0 19 C0 12.73 0 6.46 0 0 Z " fill="#020202" transform="translate(154,11)"/>
<path d="M0 0 C-1.09375 1.51953125 -1.09375 1.51953125 -3 3 C-6.03125 3.07421875 -6.03125 3.07421875 -9.5 2.6875 C-10.6446875 2.56761719 -11.789375 2.44773437 -12.96875 2.32421875 C-13.9690625 2.21722656 -14.969375 2.11023438 -16 2 C-16.99 2 -17.98 2 -19 2 C-19 8.27 -19 14.54 -19 21 C-22.96 21.495 -22.96 21.495 -27 22 C-27 21.34 -27 20.68 -27 20 C-24.69 20 -22.38 20 -20 20 C-20 13.73 -20 7.46 -20 1 C-21.98 1.33 -23.96 1.66 -26 2 C-26.33 3.32 -26.66 4.64 -27 6 C-28 3 -28 3 -28 0 C-24.83585624 -0.39868211 -21.66870435 -0.76451538 -18.5 -1.125 C-17.613125 -1.23714844 -16.72625 -1.34929688 -15.8125 -1.46484375 C-9.98735041 -2.10732348 -5.59694973 -1.76539302 0 0 Z " fill="#CBCBCB" transform="translate(115,10)"/>
<path d="M0 0 C2.625 -0.4375 2.625 -0.4375 6 0 C8.68419676 1.93759899 10.50382469 4.04629597 12 7 C12.20195364 9.97752156 11.72374182 12.05333687 11 15 C10.01 15.33 9.02 15.66 8 16 C5.33333333 10.66666667 2.66666667 5.33333333 0 0 Z " fill="#4F4F4E" transform="translate(230,12)"/>
<path d="M0 0 C0.33 0 0.66 0 1 0 C1.63976123 5.11808983 0.27857982 8.03956748 -2.5 12.16796875 C-5.39027191 15.69801439 -8.73197181 17.57732394 -13 19 C-19.73412645 19.62197971 -24.84321281 18.73634986 -31 16 C-30.34 14.68 -29.68 13.36 -29 12 C-28.525625 12.474375 -28.05125 12.94875 -27.5625 13.4375 C-23.16095454 16.12136918 -18.59865823 16.46493566 -13.5546875 15.5625 C-8.61544086 14.12799933 -5.65288531 12.59153227 -3 8 C-1.87027028 5.35741482 -0.92436209 2.72686817 0 0 Z " fill="#9C9A9A" transform="translate(350,49)"/>
<path d="M0 0 C0.89381941 3.49402134 1.23253301 5.41866747 -0.125 8.8125 C-2.36837539 11.42977128 -3.62303394 11.73339742 -7 12 C-7.33 12 -7.66 12 -8 12 C-8.19491452 10.54263913 -8.38069358 9.08405407 -8.5625 7.625 C-8.66691406 6.81289063 -8.77132813 6.00078125 -8.87890625 5.1640625 C-9 3 -9 3 -8 1 C-5.07175348 0.02391783 -3.04386724 -0.08226668 0 0 Z " fill="#F4F3F3" transform="translate(424,33)"/>
<path d="M0 0 C2.33944736 0.28730055 4.6739143 0.61936779 7 1 C5.125 5.75 5.125 5.75 4 8 C3.01 7.67 2.02 7.34 1 7 C1 7.99 1 8.98 1 10 C2.32 9.67 3.64 9.34 5 9 C4.67 9.99 4.34 10.98 4 12 C3.01 11.67 2.02 11.34 1 11 C1.33 11.66 1.66 12.32 2 13 C3.32 13 4.64 13 6 13 C6 13.66 6 14.32 6 15 C5.01 15.495 5.01 15.495 4 16 C4.66 16.66 5.32 17.32 6 18 C6 18.66 6 19.32 6 20 C4.35 20.33 2.7 20.66 1 21 C-0.78372815 16.4102489 -1.24456334 12.60013523 -1.1875 7.6875 C-1.18105469 6.45386719 -1.17460937 5.22023438 -1.16796875 3.94921875 C-1 1 -1 1 0 0 Z " fill="#B7B5B4" transform="translate(295,29)"/>
<path d="M0 0 C-1.20803142 2.51673213 -2.52586381 4.89905748 -3.9375 7.3125 C-5.93616358 10.7708617 -7.49124985 14.30356213 -9 18 C-10.32 18 -11.64 18 -13 18 C-13.93820902 15.46741124 -14.13196296 14.34226011 -13.14453125 11.78125 C-6.26541096 -0 -6.26541096 -0 0 0 Z " fill="#626161" transform="translate(261,15)"/>
<path d="M0 0 C0.99 0.66 1.98 1.32 3 2 C2.55011719 2.70382813 2.10023437 3.40765625 1.63671875 4.1328125 C-2.17764955 10.81478465 -4.70216894 18.27614165 -4 26 C-7.28976808 27.09658936 -8.71303767 26.79953138 -12 26 C-11.34 24.68 -10.68 23.36 -10 22 C-9.34 22 -8.68 22 -8 22 C-8 20.68 -8 19.36 -8 18 C-7.34 18 -6.68 18 -6 18 C-6.061875 17.278125 -6.12375 16.55625 -6.1875 15.8125 C-5.95910073 12.38651089 -4.81815511 10.89558037 -3 8 C-1.90680874 5.36058327 -0.95852045 2.69298602 0 0 Z " fill="#A2A1A2" transform="translate(48,41)"/>
<path d="M0 0 C2.64 0 5.28 0 8 0 C7.67 2.97 7.34 5.94 7 9 C6.67 9 6.34 9 6 9 C5.67 12.63 5.34 16.26 5 20 C4.34 20 3.68 20 3 20 C2.86722656 18.89140625 2.73445313 17.7828125 2.59765625 16.640625 C2.41940243 15.1770673 2.24100972 13.71352651 2.0625 12.25 C1.97548828 11.52039062 1.88847656 10.79078125 1.79882812 10.0390625 C1.37972591 6.62415558 0.882726 3.32396457 0 0 Z " fill="#B8B7B8" transform="translate(347,10)"/>
<path d="M0 0 C3 2 3 2 3.51171875 4.1640625 C3.59873047 5.38222656 3.59873047 5.38222656 3.6875 6.625 C3.78611328 7.85089844 3.78611328 7.85089844 3.88671875 9.1015625 C3.92410156 9.72804688 3.96148437 10.35453125 4 11 C2.68 9.68 1.36 8.36 0 7 C-0.33 8.65 -0.66 10.3 -1 12 C-0.01 12 0.98 12 2 12 C2 12.99 2 13.98 2 15 C-0.31 15 -2.62 15 -5 15 C-5 14.01 -5 13.02 -5 12 C-4.34 12 -3.68 12 -3 12 C-3 8.37 -3 4.74 -3 1 C-2.01 0.67 -1.02 0.34 0 0 Z " fill="#C2C1C0" transform="translate(402,34)"/>
<path d="M0 0 C0.66666667 1.33333333 1.33333333 2.66666667 2 4 C2.5878125 4.99 2.5878125 4.99 3.1875 6 C4.17413108 8.42863035 3.86626039 9.57447091 3 12 C2.01 12 1.02 12 0 12 C-0.99 13.98 -1.98 15.96 -3 18 C-3.33 18 -3.66 18 -4 18 C-3.85848172 15.9163691 -3.71162064 13.83310062 -3.5625 11.75 C-3.48128906 10.58984375 -3.40007813 9.4296875 -3.31640625 8.234375 C-2.83623418 3.32594937 -2.83623418 3.32594937 -2 1 C-1.34 0.67 -0.68 0.34 0 0 Z " fill="#9A9798" transform="translate(56,13)"/>
<path d="M0 0 C1.65 0 3.3 0 5 0 C4.125 4.875 4.125 4.875 3 6 C3.66 6.33 4.32 6.66 5 7 C5.33 5.68 5.66 4.36 6 3 C6.66 3 7.32 3 8 3 C8 5.97 8 8.94 8 12 C7.34 12 6.68 12 6 12 C5.67 11.01 5.34 10.02 5 9 C4.01 9 3.02 9 2 9 C1.67 9.99 1.34 10.98 1 12 C0.34 12 -0.32 12 -1 12 C-1.02712066 10.56260487 -1.04645067 9.12506137 -1.0625 7.6875 C-1.07410156 6.88699219 -1.08570313 6.08648437 -1.09765625 5.26171875 C-1 3 -1 3 0 0 Z " fill="#FCFCFC" transform="translate(209,32)"/>
<path d="M0 0 C0.12375 1.546875 0.12375 1.546875 0.25 3.125 C1.10253301 7.52975387 2.34241489 9.48512937 5 13 C4 14 4 14 1.0625 14.25 C0.051875 14.1675 -0.95875 14.085 -2 14 C-4.45410358 10.31884463 -4.23287843 8.34706402 -4 4 C-3.67 3.01 -3.34 2.02 -3 1 C-1 0 -1 0 0 0 Z " fill="#11100F" transform="translate(210,17)"/>
<path d="M0 0 C0.66 0.33 1.32 0.66 2 1 C2.46431642 9.04815133 2.46431642 9.04815133 0.75 12.5625 C-1 14 -1 14 -5 14 C-6.0326802 11.21176345 -6.04509293 10.1322726 -5.0625 7.25 C-4.711875 6.5075 -4.36125 5.765 -4 5 C-3.34 5 -2.68 5 -2 5 C-1.34 3.35 -0.68 1.7 0 0 Z " fill="#0D0C0C" transform="translate(122,20)"/>
<path d="M0 0 C1.99954746 -0.04254356 4.00041636 -0.04080783 6 0 C7.57922406 1.57922406 7.207659 3.19443874 7.25 5.375 C7.27578125 6.16648437 7.3015625 6.95796875 7.328125 7.7734375 C6.92898802 10.48186702 6.12436825 11.33698445 4 13 C3.67 13 3.34 13 3 13 C2.8046875 10.98177083 2.609375 8.96354167 2.4140625 6.9453125 C2.13625251 4.77331755 2.13625251 4.77331755 0 3 C0 2.01 0 1.02 0 0 Z " fill="#494849" transform="translate(235,48)"/>
<path d="M0 0 C0.66 0 1.32 0 2 0 C2 0.66 2 1.32 2 2 C7.445 3.485 7.445 3.485 13 5 C11 10 11 10 8 12 C6.66382103 10.18959679 5.33112616 8.3766216 4 6.5625 C3.2575 5.55316406 2.515 4.54382813 1.75 3.50390625 C0 1 0 1 0 0 Z " fill="#525150" transform="translate(287,63)"/>
<path d="M0 0 C11 0 11 0 14 1 C16.12710211 5.0966411 17.42160623 8.36233145 17 13 C16.46375 12.278125 15.9275 11.55625 15.375 10.8125 C10.78334021 5.37500815 6.85288469 2.50763463 0 1 C0 0.67 0 0.34 0 0 Z " fill="#AAA9A9" transform="translate(53,41)"/>
<path d="M0 0 C1.65 0 3.3 0 5 0 C7.125 6.625 7.125 6.625 6 10 C5.01 9.01 4.02 8.02 3 7 C2.67 7.99 2.34 8.98 2 10 C1.34 9.67 0.68 9.34 0 9 C0 6.03 0 3.06 0 0 Z M3 1 C3 4 3 4 3 4 Z " fill="#B6B5B5" transform="translate(99,35)"/>
<path d="M0 0 C0.99 0 1.98 0 3 0 C4.6875 2 4.6875 2 6 4 C6 2.68 6 1.36 6 0 C6.66 0 7.32 0 8 0 C8 3.3 8 6.6 8 10 C6.35 8.68 4.7 7.36 3 6 C3 6.99 3 7.98 3 9 C2.01 8.67 1.02 8.34 0 8 C0 5.36 0 2.72 0 0 Z " fill="#C1C0C0" transform="translate(276,35)"/>
<path d="M0 0 C1.11375 0.639375 2.2275 1.27875 3.375 1.9375 C8.14645698 4.35743248 12.71244433 4.7832969 18 5 C17.67 5.66 17.34 6.32 17 7 C10.19796625 7.37634203 5.24309927 6.77471079 -1 4 C-0.67 2.68 -0.34 1.36 0 0 Z " fill="#7C7B7A" transform="translate(320,61)"/>
<path d="M0 0 C4.29 0 8.58 0 13 0 C11.02 0.99 11.02 0.99 9 2 C7.989375 2.70125 6.97875 3.4025 5.9375 4.125 C3 6 3 6 0 6 C0 4.02 0 2.04 0 0 Z " fill="#2C2B2A" transform="translate(134,11)"/>
<path d="M0 0 C-1.81309003 3.77727089 -3.9073259 7.37269822 -6 11 C-6.66 10.01 -7.32 9.02 -8 8 C-8.66 8 -9.32 8 -10 8 C-8.70989008 5.12206249 -7.42638194 3.03816083 -5 1 C-2 0 -2 0 0 0 Z " fill="#757473" transform="translate(261,15)"/>
<path d="M0 0 C4 2 4 2 5 4 C5 2.68 5 1.36 5 0 C5.99 0.33 6.98 0.66 8 1 C7.67 3.64 7.34 6.28 7 9 C6.34 9 5.68 9 5 9 C3.375 7 3.375 7 2 5 C2 6.32 2 7.64 2 9 C1.34 9 0.68 9 0 9 C0 6.03 0 3.06 0 0 Z " fill="#B9B8B8" transform="translate(336,35)"/>
<path d="M0 0 C1.98 0 3.96 0 6 0 C5.67 0.66 5.34 1.32 5 2 C4.34 2 3.68 2 3 2 C2.67 2.66 2.34 3.32 2 4 C3.32 3.67 4.64 3.34 6 3 C5.67 3.99 5.34 4.98 5 6 C4.01 5.67 3.02 5.34 2 5 C2 5.99 2 6.98 2 8 C3.65 7.67 5.3 7.34 7 7 C7 7.66 7 8.32 7 9 C5.0085944 9.38133299 3.00720923 9.71325582 1 10 C0 9 0 9 -0.09765625 6.93359375 C-0.08605469 6.10988281 -0.07445313 5.28617188 -0.0625 4.4375 C-0.05347656 3.61121094 -0.04445313 2.78492188 -0.03515625 1.93359375 C-0.02355469 1.29550781 -0.01195313 0.65742187 0 0 Z " fill="#B8B6B6" transform="translate(116,35)"/>
<path d="M0 0 C3.63 0 7.26 0 11 0 C11.33 0.99 11.66 1.98 12 3 C11.34 3 10.68 3 10 3 C9.67 8.61 9.34 14.22 9 20 C8.67 20 8.34 20 8 20 C7.97309156 17.37493198 7.95320596 14.75013827 7.9375 12.125 C7.92912109 11.37863281 7.92074219 10.63226563 7.91210938 9.86328125 C7.88671875 4.2265625 7.88671875 4.2265625 9 2 C8.071875 2 7.14375 2 6.1875 2 C4.125 2 2.0625 2 0 2 C0 1.34 0 0.68 0 0 Z " fill="#A8A7A7" transform="translate(358,10)"/>
<path d="M0 0 C1.65 0.33 3.3 0.66 5 1 C5 1.66 5 2.32 5 3 C4.34 3 3.68 3 3 3 C3 2.34 3 1.68 3 1 C2.01 1.495 2.01 1.495 1 2 C2.32 2.99 3.64 3.98 5 5 C4.6875 6.9375 4.6875 6.9375 4 9 C1 10 1 10 -2 9 C-1.67 8.01 -1.34 7.02 -1 6 C0.32 6.66 1.64 7.32 3 8 C3 7.34 3 6.68 3 6 C1.68 5.67 0.36 5.34 -1 5 C-0.67 3.35 -0.34 1.7 0 0 Z " fill="#B9B8B8" transform="translate(355,35)"/>
<path d="M0 0 C1.45792884 -0.05399736 2.91642712 -0.09279177 4.375 -0.125 C5.18710937 -0.14820313 5.99921875 -0.17140625 6.8359375 -0.1953125 C9 0 9 0 11 2 C10.01 2 9.02 2 8 2 C9.65 3.98 11.3 5.96 13 8 C12.67 8.66 12.34 9.32 12 10 C11.55269531 9.61328125 11.10539062 9.2265625 10.64453125 8.828125 C7.1478974 5.81609925 3.62592537 2.85678969 0 0 Z " fill="#757575" transform="translate(277,11)"/>
<path d="M0 0 C3.63 0 7.26 0 11 0 C9.68 0.33 8.36 0.66 7 1 C7 1.66 7 2.32 7 3 C4.4385343 5.29648649 3.52032428 6 0 6 C0 4.02 0 2.04 0 0 Z " fill="#2D2C2C" transform="translate(420,11)"/>
<path d="M0 0 C0.33 0 0.66 0 1 0 C1 5.94 1 11.88 1 18 C2.65 18 4.3 18 6 18 C5.67 18.99 5.34 19.98 5 21 C3.35 21.33 1.7 21.66 0 22 C-0.1964031 18.70880065 -0.38060745 15.41703066 -0.5625 12.125 C-0.61857422 11.18785156 -0.67464844 10.25070313 -0.73242188 9.28515625 C-0.78076172 8.38925781 -0.82910156 7.49335938 -0.87890625 6.5703125 C-0.9260376 5.74289551 -0.97316895 4.91547852 -1.02172852 4.06298828 C-1 2 -1 2 0 0 Z " fill="#E7E7E7" transform="translate(153,12)"/>
<path d="M0 0 C3.96 0 7.92 0 12 0 C12 1.98 12 3.96 12 6 C7.25 4.125 7.25 4.125 5 3 C5 2.34 5 1.68 5 1 C3.35 1 1.7 1 0 1 C0 0.67 0 0.34 0 0 Z " fill="#2C2B2A" transform="translate(167,11)"/>
<path d="M0 0 C1.2065625 0.0309375 1.2065625 0.0309375 2.4375 0.0625 C1.7775 2.0425 1.1175 4.0225 0.4375 6.0625 C-1.2125 6.3925 -2.8625 6.7225 -4.5625 7.0625 C-3.5234375 0.0859375 -3.5234375 0.0859375 0 0 Z " fill="#41403F" transform="translate(299.5625,48.9375)"/>
<path d="M0 0 C0.66 0 1.32 0 2 0 C2.99 2.97 3.98 5.94 5 9 C4.34 9 3.68 9 3 9 C2.67 8.34 2.34 7.68 2 7 C1.34 7 0.68 7 0 7 C-0.33 7.66 -0.66 8.32 -1 9 C-1.66 9 -2.32 9 -3 9 C-2.01 6.03 -1.02 3.06 0 0 Z " fill="#BFBDBE" transform="translate(135,35)"/>
<path d="M0 0 C0.78375 0.04125 1.5675 0.0825 2.375 0.125 C2.375 1.115 2.375 2.105 2.375 3.125 C1.055 2.795 -0.265 2.465 -1.625 2.125 C-1.625 3.775 -1.625 5.425 -1.625 7.125 C-0.305 7.455 1.015 7.785 2.375 8.125 C2.045 7.135 1.715 6.145 1.375 5.125 C2.035 5.125 2.695 5.125 3.375 5.125 C3.375 6.445 3.375 7.765 3.375 9.125 C0.76917629 10.05565133 -0.26698224 10.27417407 -2.875 9.1875 C-3.4525 8.836875 -4.03 8.48625 -4.625 8.125 C-4.75 5.25 -4.75 5.25 -4.625 2.125 C-2.625 0.125 -2.625 0.125 0 0 Z " fill="#B8B6B6" transform="translate(249.625,34.875)"/>
<path d="M0 0 C1.4540625 0.0309375 1.4540625 0.0309375 2.9375 0.0625 C2.6075 0.7225 2.2775 1.3825 1.9375 2.0625 C0.9475 1.7325 -0.0425 1.4025 -1.0625 1.0625 C-1.0625 2.0525 -1.0625 3.0425 -1.0625 4.0625 C-0.0725 4.3925 0.9175 4.7225 1.9375 5.0625 C0.9475 5.0625 -0.0425 5.0625 -1.0625 5.0625 C-1.0625 6.0525 -1.0625 7.0425 -1.0625 8.0625 C0.2575 8.3925 1.5775 8.7225 2.9375 9.0625 C-1.9375 10.0625 -1.9375 10.0625 -3.0625 10.0625 C-3.25662181 8.58418779 -3.44262131 7.10480684 -3.625 5.625 C-3.72941406 4.80128906 -3.83382813 3.97757813 -3.94140625 3.12890625 C-3.98136719 2.44699219 -4.02132813 1.76507813 -4.0625 1.0625 C-3.0625 0.0625 -3.0625 0.0625 0 0 Z " fill="#B0AEAE" transform="translate(419.0625,34.9375)"/>
<path d="M0 0 C3 1 3 1 3.94921875 2.84765625 C4.19285156 3.57855469 4.43648437 4.30945312 4.6875 5.0625 C5.06455078 6.16271484 5.06455078 6.16271484 5.44921875 7.28515625 C5.63097656 7.85105469 5.81273437 8.41695312 6 9 C5.01 9 4.02 9 3 9 C3 8.01 3 7.02 3 6 C-0.11785113 6.64644661 -0.11785113 6.64644661 -1 9 C-1.66 8.67 -2.32 8.34 -3 8 C-2.01 5.36 -1.02 2.72 0 0 Z " fill="#BDBCBC" transform="translate(230,35)"/>
<path d="M0 0 C1.2065625 0.0309375 1.2065625 0.0309375 2.4375 0.0625 C2.4375 1.0525 2.4375 2.0425 2.4375 3.0625 C1.1175 2.7325 -0.2025 2.4025 -1.5625 2.0625 C-1.8925 3.3825 -2.2225 4.7025 -2.5625 6.0625 C-0.48696352 6.6159764 1.28115964 7.0625 3.4375 7.0625 C3.4375 7.7225 3.4375 8.3825 3.4375 9.0625 C1.1875 9.8125 1.1875 9.8125 -1.5625 10.0625 C-3.875 8.125 -3.875 8.125 -5.5625 6.0625 C-3.26136364 0.07954545 -3.26136364 0.07954545 0 0 Z " fill="#BAB9B9" transform="translate(85.5625,34.9375)"/>
<path d="M0 0 C1.98 0 3.96 0 6 0 C6 0.66 6 1.32 6 2 C4.68 1.67 3.36 1.34 2 1 C2 1.99 2 2.98 2 4 C2.99 3.67 3.98 3.34 5 3 C4.67 3.99 4.34 4.98 4 6 C3.34 5.67 2.68 5.34 2 5 C2 5.99 2 6.98 2 8 C3.32 7.67 4.64 7.34 6 7 C6 7.66 6 8.32 6 9 C4.02 9 2.04 9 0 9 C0 6.03 0 3.06 0 0 Z " fill="#B1B0B0" transform="translate(167,35)"/>
<path d="M0 0 C2.64 0 5.28 0 8 0 C8 0.66 8 1.32 8 2 C7.01 2.495 7.01 2.495 6 3 C5.27306096 4.97888961 4.60183749 6.97954558 4 9 C2.47700477 6.06279492 1.19899698 3.0831351 0 0 Z " fill="#474646" transform="translate(347,10)"/>
<path d="M0 0 C2.24973447 -0.054138 4.49984383 -0.09285491 6.75 -0.125 C8.00296875 -0.14820313 9.2559375 -0.17140625 10.546875 -0.1953125 C13.72820492 -0.01537302 15.36521896 0.31001418 18 2 C17.01 2.33 16.02 2.66 15 3 C14.67 3.66 14.34 4.32 14 5 C13.40832031 4.79503906 12.81664062 4.59007812 12.20703125 4.37890625 C8.16339184 3.0002429 4.23144751 1.68249153 0 1 C0 0.67 0 0.34 0 0 Z " fill="#848483" transform="translate(386,10)"/>
<path d="M0 0 C0.56203125 0.16371094 1.1240625 0.32742187 1.703125 0.49609375 C4.13059056 1.02864997 6.26889681 1.09898681 8.75 1.0625 C9.94882813 1.04896484 9.94882813 1.04896484 11.171875 1.03515625 C12.07679688 1.01775391 12.07679688 1.01775391 13 1 C13 1.99 13 2.98 13 4 C11.06280622 4.05406122 9.12518079 4.09282025 7.1875 4.125 C6.10855469 4.14820312 5.02960938 4.17140625 3.91796875 4.1953125 C1 4 1 4 -2 2 C-1.34 2 -0.68 2 0 2 C0 1.34 0 0.68 0 0 Z " fill="#A3A1A1" transform="translate(218,64)"/>
<path d="M0 0 C2.64 0.99 5.28 1.98 8 3 C6.515 5.475 6.515 5.475 5 8 C3.35 7.67 1.7 7.34 0 7 C0 4.69 0 2.38 0 0 Z " fill="#D9D9D9" transform="translate(280,57)"/>
<path d="M0 0 C0.66 0 1.32 0 2 0 C2 2.97 2 5.94 2 9 C1.34 9 0.68 9 0 9 C-0.33 8.01 -0.66 7.02 -1 6 C-1.99 6 -2.98 6 -4 6 C-4.66 4.35 -5.32 2.7 -6 1 C-4.35 1.99 -2.7 2.98 -1 4 C-0.67 2.68 -0.34 1.36 0 0 Z " fill="#A5A4A4" transform="translate(215,35)"/>
<path d="M0 0 C5.4389165 -0.21755666 9.87080814 -0.10428384 15 2 C13.75 3.5625 13.75 3.5625 12 5 C9.8125 4.6875 9.8125 4.6875 8 4 C8 3.34 8 2.68 8 2 C5.36 2 2.72 2 0 2 C0 1.34 0 0.68 0 0 Z " fill="#969695" transform="translate(219,9)"/>
<path d="M0 0 C4.62 0 9.24 0 14 0 C14 0.66 14 1.32 14 2 C8.94997778 3.03590199 4.12583611 3.10251672 -1 3 C-0.67 2.01 -0.34 1.02 0 0 Z " fill="#A8A7A6" transform="translate(271,65)"/>
<path d="M0 0 C1.65 0 3.3 0 5 0 C5.33 1.65 5.66 3.3 6 5 C4.68 5.33 3.36 5.66 2 6 C2 6.99 2 7.98 2 9 C1.34 9 0.68 9 0 9 C0 6.03 0 3.06 0 0 Z M2 1 C2 2.32 2 3.64 2 5 C2.99 4.67 3.98 4.34 5 4 C4.67 3.01 4.34 2.02 4 1 C3.34 1 2.68 1 2 1 Z " fill="#A8A7A7" transform="translate(370,35)"/>
<path d="M0 0 C0.33 0 0.66 0 1 0 C1 1.98 1 3.96 1 6 C3.475 6.99 3.475 6.99 6 8 C5.67 6.68 5.34 5.36 5 4 C6.32 5.32 7.64 6.64 9 8 C8.67 8.66 8.34 9.32 8 10 C5.125 10.1875 5.125 10.1875 2 10 C-0.4294516 6.3558226 -0.16179575 4.28758728 0 0 Z " fill="#969594" transform="translate(206,21)"/>
<path d="M0 0 C2.31 0 4.62 0 7 0 C7 0.66 7 1.32 7 2 C6.34 2 5.68 2 5 2 C4.67 4.64 4.34 7.28 4 10 C3.34 10 2.68 10 2 10 C1.77213542 7.98177083 1.54427083 5.96354167 1.31640625 3.9453125 C1.08707039 1.92595684 1.08707039 1.92595684 0 0 Z " fill="#B4B2B2" transform="translate(150,35)"/>
<path d="M0 0 C2.31 0.33 4.62 0.66 7 1 C6.25 2.9375 6.25 2.9375 5 5 C3 5.8125 3 5.8125 1 6 C0.34 5.67 -0.32 5.34 -1 5 C-0.67 3.35 -0.34 1.7 0 0 Z " fill="#F8F8F8" transform="translate(295,29)"/>
<path d="M0 0 C0.0825 0.61875 0.165 1.2375 0.25 1.875 C0.81258459 4.18437567 0.81258459 4.18437567 3.0625 5.25 C3.701875 5.4975 4.34125 5.745 5 6 C4.01 7.485 4.01 7.485 3 9 C1.68 9 0.36 9 -1 9 C-2.0326802 6.21176345 -2.04509293 5.1322726 -1.0625 2.25 C-0.711875 1.5075 -0.36125 0.765 0 0 Z " fill="#E6E6E6" transform="translate(118,25)"/>
<path d="M0 0 C1.98 0 3.96 0 6 0 C6 1.98 6 3.96 6 6 C3.5625 5.25 3.5625 5.25 1 4 C0.1875 1.875 0.1875 1.875 0 0 Z " fill="#1C1B1A" transform="translate(459,11)"/>
<path d="M0 0 C1.32 0.66 2.64 1.32 4 2 C3.25 3.9375 3.25 3.9375 2 6 C-0.125 6.75 -0.125 6.75 -2 7 C-1.125 1.125 -1.125 1.125 0 0 Z " fill="#6E6D6C" transform="translate(294,54)"/>
<path d="M0 0 C0.66 0 1.32 0 2 0 C2 0.66 2 1.32 2 2 C3.65 2 5.3 2 7 2 C7 2.99 7 3.98 7 5 C5.35 4.67 3.7 4.34 2 4 C2 4.66 2 5.32 2 6 C2.66 6.33 3.32 6.66 4 7 C3.34 7.66 2.68 8.32 2 9 C0 3.375 0 3.375 0 0 Z " fill="#979695" transform="translate(248,46)"/>
<path d="M0 0 C0.66 0 1.32 0 2 0 C2 0.66 2 1.32 2 2 C2.99 2 3.98 2 5 2 C5 2.99 5 3.98 5 5 C2.69 5 0.38 5 -2 5 C-2 4.01 -2 3.02 -2 2 C-1.34 2 -0.68 2 0 2 C0 1.34 0 0.68 0 0 Z " fill="#FCFCFC" transform="translate(399,44)"/>
<path d="M0 0 C1.12377697 3.30435084 0.89554742 5.0506862 -0.4375 8.25 C-0.72496094 8.95640625 -1.01242188 9.6628125 -1.30859375 10.390625 C-1.53675781 10.92171875 -1.76492187 11.4528125 -2 12 C-2.33 12 -2.66 12 -3 12 C-3.15384615 4 -3.15384615 4 -2 1 C-1.34 0.67 -0.68 0.34 0 0 Z " fill="#F4F4F4" transform="translate(56,13)"/>
<path d="M0 0 C0.33 0 0.66 0 1 0 C1.33 1.98 1.66 3.96 2 6 C-0.6666419 7.33332095 -2.16680303 6.67102033 -5 6 C-4.34 4.68 -3.68 3.36 -3 2 C-2.01 2 -1.02 2 0 2 C0 1.34 0 0.68 0 0 Z " fill="#4D4C4C" transform="translate(41,61)"/>
<path d="M0 0 C1.98 0.66 3.96 1.32 6 2 C6 2.99 6 3.98 6 5 C4.35 5.33 2.7 5.66 1 6 C0.67 4.02 0.34 2.04 0 0 Z " fill="#FAFAFA" transform="translate(295,44)"/>
<path d="M0 0 C0.99 0.33 1.98 0.66 3 1 C2.67 1.99 2.34 2.98 2 4 C2.66 4 3.32 4 4 4 C3.34 5.65 2.68 7.3 2 9 C1.34 9 0.68 9 0 9 C0 6.03 0 3.06 0 0 Z " fill="#A6A4A4" transform="translate(399,35)"/>
<path d="M0 0 C3.96 1.98 3.96 1.98 8 4 C7.34 4.66 6.68 5.32 6 6 C2.70285207 5.67028521 1.3773161 5.3773161 -1 3 C-0.67 2.01 -0.34 1.02 0 0 Z " fill="#878686" transform="translate(320,61)"/>
<path d="M0 0 C0.99 0 1.98 0 3 0 C3 2.97 3 5.94 3 9 C2.01 9 1.02 9 0 9 C0 6.03 0 3.06 0 0 Z " fill="#B1AFAF" transform="translate(263,35)"/>
<path d="M0 0 C0.66 0.33 1.32 0.66 2 1 C2.625 4.0625 2.625 4.0625 3 7 C2.01 7.33 1.02 7.66 0 8 C-0.79953138 4.71303767 -1.09658936 3.28976808 0 0 Z " fill="#E3E3E3" transform="translate(57,17)"/>
<path d="M0 0 C0 0.66 0 1.32 0 2 C0.99 2.33 1.98 2.66 3 3 C1.741875 3.04125 0.48375 3.0825 -0.8125 3.125 C-1.52019531 3.14820312 -2.22789062 3.17140625 -2.95703125 3.1953125 C-5 3 -5 3 -8 1 C-5.10765685 0.17361624 -3.11257569 0 0 0 Z " fill="#535252" transform="translate(271,64)"/>
<path d="M0 0 C0.66 0 1.32 0 2 0 C2 2.97 2 5.94 2 9 C1.01 9 0.02 9 -1 9 C-0.67 6.03 -0.34 3.06 0 0 Z " fill="#ACABAB" transform="translate(196,35)"/>
<path d="M0 0 C1.00289062 0.10183594 2.00578125 0.20367187 3.0390625 0.30859375 C3.80992187 0.39238281 4.58078125 0.47617188 5.375 0.5625 C5.375 0.8925 5.375 1.2225 5.375 1.5625 C-1.06 2.0575 -1.06 2.0575 -7.625 2.5625 C-7.625 1.9025 -7.625 1.2425 -7.625 0.5625 C-4.89657939 -0.80171031 -3.01546682 -0.31557211 0 0 Z " fill="#B8B7B7" transform="translate(221.625,10.4375)"/>
<path d="M0 0 C1.32 0.33 2.64 0.66 4 1 C3.67 1.99 3.34 2.98 3 4 C1.02 4 -0.96 4 -3 4 C-2.34 3.67 -1.68 3.34 -1 3 C-0.67 2.01 -0.34 1.02 0 0 Z " fill="#FCFCFC" transform="translate(115,45)"/>
<path d="M0 0 C0.66 0 1.32 0 2 0 C2 2.97 2 5.94 2 9 C1.34 9 0.68 9 0 9 C0 6.03 0 3.06 0 0 Z " fill="#A4A3A2" transform="translate(323,35)"/>
<path d="M0 0 C2 1 2 1 2.6875 2.8125 C3.02688538 5.18819767 2.72856341 6.73335829 2 9 C1.34 9 0.68 9 0 9 C0 6.03 0 3.06 0 0 Z " fill="#D9D9D9" transform="translate(208,35)"/>
<path d="M0 0 C1.98 0 3.96 0 6 0 C5.67 0.99 5.34 1.98 5 3 C3.35 3.33 1.7 3.66 0 4 C0 2.68 0 1.36 0 0 Z " fill="#FCFCFC" transform="translate(153,30)"/>
<path d="M0 0 C2.31 0 4.62 0 7 0 C6.01 0.33 5.02 0.66 4 1 C4.66 2.65 5.32 4.3 6 6 C3.97945196 4.35830472 1.97956942 2.69088222 0 1 C0 0.67 0 0.34 0 0 Z " fill="#7D7C7C" transform="translate(111,11)"/>
<path d="M0 0 C0.99 0 1.98 0 3 0 C3 2.97 3 5.94 3 9 C2.01 8.67 1.02 8.34 0 8 C0 5.36 0 2.72 0 0 Z " fill="#939392" transform="translate(386,35)"/>
<path d="M0 0 C0.66 0 1.32 0 2 0 C1.67 0.66 1.34 1.32 1 2 C0.67 1.34 0.34 0.68 0 0 Z " fill="#BBBABA" transform="translate(183,43)"/>
<path d="M0 0 C2 1 2 1 2 1 Z " fill="#AAA9A8" transform="translate(311,43)"/>
<path d="" fill="#FEFEFE" transform="translate(0,0)"/>
<path d="" fill="#FEFEFE" transform="translate(0,0)"/>
<path d="" fill="#FEFEFE" transform="translate(0,0)"/>
<path d="" fill="#FEFEFE" transform="translate(0,0)"/>
</svg>
